<?xml version="1.0" encoding="utf-8"?>
<!-- Generator: Adobe Illustrator 22.0.1, SVG Export Plug-In . SVG Version: 6.00 Build 0)  -->
<svg version="1.1" id="Camada_1" xmlns="http://www.w3.org/2000/svg" xmlns:xlink="http://www.w3.org/1999/xlink" x="0px" y="0px"
	 viewBox="0 0 40 33" style="enable-background:new 0 0 40 33;" xml:space="preserve">
<style type="text/css">
	.st0{fill:#ECEFF0;}
	.st1{fill:#D9DBDD;}
	.st2{fill:#F4F6F7;}
	.st3{fill:#FFFFFF;stroke:#D9DBDD;stroke-miterlimit:10;}
	.st4{fill:#5DA38A;}
	.st5{fill:#AD0035;}
	.st6{fill:#B5BDC9;}
	.st7{display:none;fill:#ECEFF0;}
	.st8{fill:none;stroke:#D9DBDD;stroke-miterlimit:10;}
	.st9{fill:none;stroke:#D9DBDD;stroke-miterlimit:10;stroke-dasharray:1,1;}
	.st10{fill:#252A2F;}
	.st11{fill:#2C333A;}
	.st12{fill:#FFFFFF;}
	.st13{fill:#BFC7D3;}
	.st14{fill:#E7EAEB;}
	.st15{fill:#F4F6F7;stroke:#D9DBDD;stroke-miterlimit:10;}
	.st16{fill:#B2B7BC;}
	.st17{fill:#DFE1E4;}
	.st18{fill-rule:evenodd;clip-rule:evenodd;fill:none;stroke:#B5BDC9;stroke-miterlimit:10;}
	.st19{fill:none;stroke:#ECEFF0;stroke-miterlimit:10;}
	.st20{fill:#FFFFFF;stroke:#ECEFF0;stroke-miterlimit:10;}
	.st21{fill:none;stroke:#B5BDC9;stroke-miterlimit:10;}
	.st22{fill:none;stroke:#9C9C9C;stroke-miterlimit:10;}
	.st23{fill:#D7E4FD;}
	.st24{fill:#F5DEE6;}
	.st25{fill:none;stroke:#D6D6D6;stroke-miterlimit:10;}
	.st26{opacity:0.5;fill:#D7E4FD;}
	.st27{opacity:0.5;fill:#F5DEE6;}
	.st28{fill:#FFFFFF;stroke:#7A7F86;stroke-miterlimit:10;}
	.st29{fill:none;stroke:#5DA38A;stroke-miterlimit:10;}
	.st30{fill:none;stroke:#AD0035;stroke-miterlimit:10;}
	.st31{fill:none;stroke:#E0C758;stroke-miterlimit:10;}
	.st32{fill:none;stroke:#5DA38A;stroke-miterlimit:10;stroke-dasharray:2,2;}
	.st33{fill:#404A54;}
	.st34{fill:#282D33;}
	.st35{fill:none;stroke:#B5BDC9;stroke-linecap:round;stroke-linejoin:round;stroke-miterlimit:10;}
	.st36{fill:none;stroke:#5DA38A;stroke-linecap:round;stroke-linejoin:round;stroke-miterlimit:10;}
	.st37{fill:none;stroke:#AD0035;stroke-linecap:round;stroke-linejoin:round;stroke-miterlimit:10;}
	
		.st38{fill-rule:evenodd;clip-rule:evenodd;fill:none;stroke:#B5BDC9;stroke-linecap:round;stroke-linejoin:round;stroke-miterlimit:10;}
	.st39{fill:#E8ECED;}
	.st40{fill:none;stroke:#D9DDDF;stroke-miterlimit:10;}
	.st41{fill:#2B3441;stroke:#2B3441;stroke-miterlimit:10;}
	.st42{fill:#D8DDDF;}
	.st43{fill:none;stroke:#2B3441;stroke-miterlimit:10;}
	.st44{fill:none;stroke:#7A7F86;stroke-linecap:round;stroke-linejoin:round;stroke-miterlimit:10;}
	.st45{fill:none;stroke:#5DA38A;stroke-miterlimit:10;stroke-dasharray:1.9972,1.9972;}
	.st46{fill:#DFE1E4;stroke:#D9DBDD;stroke-miterlimit:10;}
	.st47{fill:none;stroke:#7A7F86;stroke-miterlimit:10;}
	.st48{fill:none;stroke:#FFFFFF;stroke-miterlimit:10;}
	.st49{fill:#606060;}
	.st50{fill:none;stroke:#BD0033;stroke-linecap:round;stroke-linejoin:round;stroke-miterlimit:10;}
	.st51{fill:#9C9C9C;}
	.st52{fill:none;stroke:#9C9C9C;stroke-linecap:round;stroke-linejoin:round;stroke-miterlimit:10;}
</style>
<g>
	<path class="st12" d="M30.9,13.3c-0.6-0.5-2.9,0-2.9,0c1.8,0.4,3,1.6,3,1.6S31.6,13.9,30.9,13.3"/>
	<path class="st12" d="M37.6,15.1c-0.3-0.3-3.5-3.5-6.4-4.7c-2-0.8-2.3-4.4-8.4-6.3c-2.8-0.9-7.6-0.5-7.7-2.4c-0.9,1.1-0.5,3,2,3.2
		c-1.1-0.1-5.9,0-9,4c-1.8,2.4-3.1,4.3-5.3,4.3c-0.2,0.5-0.3,1.1-0.3,1.8C4,14.5,6,13.6,7.2,11.6c2-3.3,5.4-4.9,10.1-4.9h0l0,0.7h0
		c-4.5,0-7.7,1.5-9.5,4.6c-1.4,2.3-3.6,3.3-5.4,3.6c0,0.4,0,0.8,0,1.3C4,16.5,6,15.6,7.2,13.6c2-3.3,5.4-4.9,10.1-4.9l0,0.7h0
		c-4.5,0-7.7,1.5-9.5,4.6c-1.4,2.3-3.6,3.2-5.3,3.6c0,0.4,0.1,0.8,0.2,1.2c1.5-0.4,3.4-1.3,4.5-3.2c2-3.3,5.4-4.9,10.1-4.9h0l0,0.7
		h0c-4.5,0-7.7,1.5-9.5,4.6c-1.3,2.2-3.3,3.1-5,3.6c0.1,0.4,0.2,0.8,0.3,1.2c1.4-0.4,3.1-1.3,4.2-3.1c2-3.3,5.4-4.9,10.1-4.9h0
		l0,0.7h0c-4.5,0-7.7,1.5-9.5,4.6c-1.2,2-3,3-4.6,3.4c0.1,0.4,0.2,0.8,0.3,1.1c1.3-0.5,2.7-1.4,3.7-3c2-3.3,5.4-4.9,10.1-4.9h0
		l0,0.7h0c-4.5,0-7.7,1.5-9.5,4.6c-1.1,1.8-2.6,2.7-4,3.3c0.1,0.4,0.3,0.7,0.4,1.1c1.1-0.5,2.2-1.4,3-2.7c2-3.3,5.4-4.9,10.1-4.9h0
		l0,0.7h0c-4.5,0-7.7,1.5-9.5,4.6c-0.9,1.5-2.1,2.4-3.3,3c0.1,0.3,0.3,0.6,0.5,1c0.9-0.5,1.7-1.3,2.3-2.3c2-3.3,5.4-4.9,10.1-4.9h0
		l0,0.7h0c-4.5,0-7.7,1.5-9.5,4.6c-0.7,1.2-1.6,2-2.5,2.5c0.2,0.3,0.3,0.5,0.5,0.8c0.5-0.5,1.1-1,1.5-1.7c2-3.3,5.4-4.9,10.1-4.9h0
		l0,0.7h0c-4.5,0-7.7,1.5-9.5,4.6c-0.5,0.8-1,1.4-1.7,1.9c0.2,0.2,0.3,0.4,0.5,0.6C6.8,28,7,27.7,7.2,27.4c2-3.3,5.4-4.9,10.1-4.9h0
		l0,0.7h0c-4.5,0-7.7,1.5-9.5,4.6c-0.2,0.4-0.5,0.7-0.7,1c0.1,0.1,0.2,0.2,0.4,0.3c2-3.1,5.3-4.6,9.9-4.6l0,0.7h0
		c-4.3,0-7.5,1.5-9.4,4.4c0.2,0.1,0.3,0.2,0.5,0.3c2-2.2,5-3.3,8.9-3.3h0l0,0.7h0c-3.6,0-6.3,1-8.2,2.9c0.3,0.1,0.7,0.2,1,0.2
		C13.6,27.6,21,27,26.3,31c-1.9-3.7-2.2-6.5-0.5-7.5c2.6-1.5,5.4,1.5,4.5,3.5c0,0,7-0.7,4.6-5.7c0,0,1.3-0.3,1.8-2.4
		c0,0,1.5-0.6,1.5-2.3C38.2,16,38.1,15.6,37.6,15.1 M36.4,17.6c-1.3,0-2-1.4-2-1.4s-0.5,0.1-0.2,0.9c0.4,0.8,1.5,1,1.5,1.8
		c0.1,0.8-0.7,1.8-1.1,1.9c-0.4,0.1-2.6,0.6-2.9,1.2v0.6c0,0,2.8-0.9,2.9-0.5c0.1,0.3,0.5,1.4,0,2c-0.5,0.6-2,2.4-3.8,0.4
		c-1.7-2-2.4-2.8-4.5-2.5c0,0,0.9-1.1,0-2.4c0,0-0.5,2.4-2.5,2.4c-1.6,0-2.8-1.4-1.4-3.4c1.4-2,1.9-3.5,1.9-5c0,0-1.3-0.5-1.7-2.6
		c-0.3-2-4.2-1.2-2.2,2.3c0,0-1.4-1.4-0.7-3.2c0.8-2.1,4.7-1.3,4.9,2.4c0,0,0.6-1.9-0.5-3.3c0,0,1.5-0.5,2.9,0.6
		c1.4,1.1,2.1,1.1,3.5,1.5c0.8,0.2,3.3,0.9,6.6,4.4c0.2,0.2,0.3,0.4,0.3,0.6C37.6,16.4,37.7,17.6,36.4,17.6"/>
</g>
</svg>
