<?xml version="1.0" encoding="utf-8"?>
<!-- Generator: Adobe Illustrator 22.0.1, SVG Export Plug-In . SVG Version: 6.00 Build 0)  -->
<svg version="1.1" id="Camada_1" xmlns="http://www.w3.org/2000/svg" xmlns:xlink="http://www.w3.org/1999/xlink" x="0px" y="0px"
	 viewBox="0 0 150 33" style="enable-background:new 0 0 150 33;" xml:space="preserve">
<style type="text/css">
	.st0{fill:#ECEFF0;}
	.st1{fill:#D9DBDD;}
	.st2{fill:#F4F6F7;}
	.st3{fill:#FFFFFF;stroke:#D9DBDD;stroke-miterlimit:10;}
	.st4{fill:#5DA38A;}
	.st5{fill:#AD0035;}
	.st6{fill:#B5BDC9;}
	.st7{display:none;fill:#ECEFF0;}
	.st8{fill:none;stroke:#D9DBDD;stroke-miterlimit:10;}
	.st9{fill:none;stroke:#D9DBDD;stroke-miterlimit:10;stroke-dasharray:1,1;}
	.st10{fill:#252A2F;}
	.st11{fill:#2C333A;}
	.st12{fill:#FFFFFF;}
	.st13{fill:#BFC7D3;}
	.st14{fill:#E7EAEB;}
	.st15{fill:#F4F6F7;stroke:#D9DBDD;stroke-miterlimit:10;}
	.st16{fill:#B2B7BC;}
	.st17{fill:#DFE1E4;}
	.st18{fill-rule:evenodd;clip-rule:evenodd;fill:none;stroke:#B5BDC9;stroke-miterlimit:10;}
	.st19{fill:none;stroke:#ECEFF0;stroke-miterlimit:10;}
	.st20{fill:#FFFFFF;stroke:#ECEFF0;stroke-miterlimit:10;}
	.st21{fill:none;stroke:#B5BDC9;stroke-miterlimit:10;}
	.st22{fill:none;stroke:#9C9C9C;stroke-miterlimit:10;}
	.st23{fill:#D7E4FD;}
	.st24{fill:#F5DEE6;}
	.st25{fill:none;stroke:#D6D6D6;stroke-miterlimit:10;}
	.st26{opacity:0.5;fill:#D7E4FD;}
	.st27{opacity:0.5;fill:#F5DEE6;}
	.st28{fill:#FFFFFF;stroke:#7A7F86;stroke-miterlimit:10;}
	.st29{fill:none;stroke:#5DA38A;stroke-miterlimit:10;}
	.st30{fill:none;stroke:#AD0035;stroke-miterlimit:10;}
	.st31{fill:none;stroke:#E0C758;stroke-miterlimit:10;}
	.st32{fill:none;stroke:#5DA38A;stroke-miterlimit:10;stroke-dasharray:2,2;}
	.st33{fill:#404A54;}
	.st34{fill:#282D33;}
	.st35{fill:none;stroke:#B5BDC9;stroke-linecap:round;stroke-linejoin:round;stroke-miterlimit:10;}
	.st36{fill:none;stroke:#5DA38A;stroke-linecap:round;stroke-linejoin:round;stroke-miterlimit:10;}
	.st37{fill:none;stroke:#AD0035;stroke-linecap:round;stroke-linejoin:round;stroke-miterlimit:10;}
	
		.st38{fill-rule:evenodd;clip-rule:evenodd;fill:none;stroke:#B5BDC9;stroke-linecap:round;stroke-linejoin:round;stroke-miterlimit:10;}
	.st39{fill:#E8ECED;}
	.st40{fill:none;stroke:#D9DDDF;stroke-miterlimit:10;}
	.st41{fill:#2B3441;stroke:#2B3441;stroke-miterlimit:10;}
	.st42{fill:#D8DDDF;}
	.st43{fill:none;stroke:#2B3441;stroke-miterlimit:10;}
	.st44{fill:none;stroke:#7A7F86;stroke-linecap:round;stroke-linejoin:round;stroke-miterlimit:10;}
	.st45{fill:none;stroke:#5DA38A;stroke-miterlimit:10;stroke-dasharray:1.9972,1.9972;}
	.st46{fill:#DFE1E4;stroke:#D9DBDD;stroke-miterlimit:10;}
	.st47{fill:none;stroke:#7A7F86;stroke-miterlimit:10;}
	.st48{fill:none;stroke:#FFFFFF;stroke-miterlimit:10;}
	.st49{fill:#606060;}
	.st50{fill:none;stroke:#BD0033;stroke-linecap:round;stroke-linejoin:round;stroke-miterlimit:10;}
	.st51{fill:#9C9C9C;}
	.st52{fill:none;stroke:#9C9C9C;stroke-linecap:round;stroke-linejoin:round;stroke-miterlimit:10;}
</style>
<g>
	<g>
		<g>
			<path class="st12" d="M34.1,13.3c-0.7-0.6-3.1,0-3.1,0c1.9,0.5,3.2,1.7,3.2,1.7S34.8,13.9,34.1,13.3"/>
			<path class="st12" d="M41.3,15.2c-0.3-0.3-3.7-3.7-6.9-5.1c-2.1-0.9-2.4-4.7-9-6.8c-2.9-0.9-8.1-0.6-8.3-2.6
				c-1,1.1-0.5,3.2,2.1,3.4c-1.2-0.1-6.3,0-9.6,4.3c-2,2.6-3.3,4.6-5.7,4.6c-0.2,0.5-0.3,1.2-0.4,1.9c1.7-0.4,3.8-1.3,5.1-3.5
				c2.1-3.5,5.8-5.3,10.8-5.3h0l0,0.7h0c-4.8,0-8.2,1.7-10.2,4.9c-1.5,2.5-3.9,3.5-5.7,3.9c0,0.4,0,0.9,0,1.4
				c1.7-0.4,3.8-1.3,5.1-3.5c2.1-3.5,5.8-5.3,10.8-5.3l0,0.7h0c-4.8,0-8.2,1.7-10.2,4.9c-1.5,2.5-3.8,3.5-5.6,3.9
				c0,0.4,0.1,0.9,0.2,1.3c1.6-0.4,3.6-1.4,4.9-3.5c2.1-3.5,5.8-5.3,10.8-5.3h0l0,0.7h0c-4.8,0-8.2,1.7-10.2,4.9
				c-1.4,2.3-3.6,3.4-5.3,3.8c0.1,0.4,0.2,0.9,0.3,1.3c1.5-0.5,3.3-1.4,4.5-3.4c2.1-3.5,5.8-5.3,10.8-5.3h0l0,0.7h0
				c-4.8,0-8.2,1.7-10.2,4.9c-1.3,2.1-3.2,3.2-4.9,3.7c0.1,0.4,0.2,0.8,0.4,1.2c1.4-0.5,2.9-1.5,3.9-3.2c2.1-3.5,5.8-5.3,10.8-5.3h0
				l0,0.7h0c-4.8,0-8.2,1.7-10.2,4.9c-1.1,1.9-2.8,2.9-4.3,3.5c0.1,0.4,0.3,0.8,0.4,1.1c1.2-0.6,2.4-1.5,3.2-2.9
				c2.1-3.5,5.8-5.3,10.8-5.3h0l0,0.7h0c-4.8,0-8.2,1.7-10.2,4.9C8.3,24,7,25,5.7,25.6c0.2,0.3,0.3,0.7,0.5,1
				C7.1,26,8,25.3,8.7,24.1c2.1-3.5,5.8-5.3,10.8-5.3h0l0,0.7h0c-4.8,0-8.2,1.7-10.2,4.9c-0.8,1.2-1.7,2.1-2.7,2.7
				c0.2,0.3,0.3,0.6,0.5,0.9c0.6-0.5,1.1-1.1,1.6-1.8c2.1-3.5,5.8-5.3,10.8-5.3h0l0,0.7h0c-4.8,0-8.2,1.7-10.2,4.9
				c-0.5,0.8-1.1,1.5-1.8,2.1c0.2,0.2,0.3,0.4,0.5,0.6c0.2-0.3,0.5-0.6,0.7-0.9c2.1-3.5,5.8-5.3,10.8-5.3h0l0,0.7h0
				c-4.8,0-8.2,1.7-10.2,4.9c-0.2,0.4-0.5,0.8-0.8,1.1c0.1,0.1,0.3,0.2,0.4,0.3c2.1-3.3,5.7-4.9,10.6-4.9l0,0.7h0
				c-4.7,0-8,1.6-10,4.7c0.2,0.1,0.3,0.2,0.5,0.3c2.2-2.4,5.4-3.6,9.5-3.6h0l0,0.7h0c-3.8,0-6.8,1.1-8.8,3.1
				c0.4,0.1,0.7,0.2,1.1,0.2c3.7-2.7,11.7-3.4,17.4,0.9c-2-4-2.4-7-0.5-8.1c2.8-1.6,5.8,1.7,4.8,3.8c0,0,7.5-0.7,4.9-6.1
				c0,0,1.4-0.4,1.9-2.6c0,0,1.6-0.6,1.6-2.5C41.9,16.2,41.8,15.8,41.3,15.2 M40,17.9c-1.3,0-2.2-1.5-2.2-1.5s-0.6,0.1-0.2,1
				c0.4,0.8,1.6,1,1.6,1.9c0.1,0.8-0.8,1.9-1.2,2.1c-0.4,0.1-2.8,0.6-3.1,1.3v0.6c0,0,2.9-0.9,3.1-0.5c0.1,0.3,0.5,1.4,0,2.1
				c-0.5,0.7-2.2,2.6-4.1,0.4c-1.9-2.2-2.6-3-4.8-2.7c0,0,1-1.2,0-2.6c0,0-0.5,2.6-2.7,2.6c-1.7,0-3-1.5-1.5-3.6
				c1.5-2.1,2.1-3.7,2.1-5.3c0,0-1.4-0.6-1.8-2.8c-0.4-2.2-4.5-1.3-2.4,2.5c0,0-1.5-1.5-0.7-3.4c0.9-2.2,5-1.4,5.3,2.6
				c0,0,0.7-2.1-0.6-3.5c0,0,1.6-0.5,3.1,0.6c1.5,1.1,2.2,1.2,3.8,1.6c0.9,0.2,3.5,0.9,7.1,4.7c0.2,0.2,0.3,0.4,0.3,0.6
				C41.2,16.6,41.3,17.9,40,17.9"/>
		</g>
	</g>
	<g>
		<path class="st12" d="M54.6,15.6c0.8-0.8,1.5-1.7,1.5-3.2c0-1.1-0.8-2.9-3.8-2.9c-0.5,0-0.9,0-1.3,0c-0.3,0-0.5,0-0.7,0
			c0,0-0.1,0-0.2,0c-0.4,0-1.2,0-1.8,0c-0.4,0-0.5,0.2-0.5,0.4c0,0.2,0.2,0.3,0.4,0.3c0.2,0,0.4,0,0.6,0.1c0.5,0.1,0.6,0.3,0.6,0.8
			c0,0.6,0,1.1,0,3.9v3.2c0,1.7,0,3.2-0.1,3.9c-0.1,0.6-0.2,0.8-0.4,0.8c-0.1,0-0.4,0.1-0.5,0.1c-0.2,0-0.4,0.2-0.4,0.3
			c0,0.2,0.1,0.4,0.5,0.4c0.1,0,0.3,0,0.5,0c0.2,0,0.4,0,0.6,0c0.4,0,0.7,0,0.7,0c0.1,0,0.6,0,1.1,0.1c0.2,0,0.5,0,0.7,0
			c0.3,0,0.5,0,0.6,0c3.2,0,4.8-2.1,4.8-4.2C57.6,17.3,55.9,16.1,54.6,15.6 M52.1,10.4c1.7,0,2.2,1.5,2.2,2.9c0,0.6-0.2,1.3-0.6,1.7
			c-0.3,0.4-0.5,0.4-1.5,0.4c-0.6,0-0.9,0-1-0.1l0-4.8c0,0,0,0,0.1,0C51.6,10.4,51.9,10.4,52.1,10.4 M51.3,16.3c0.9,0,1.2,0,1.3,0
			c0.4,0.1,0.8,0.1,1.4,0.5c1.5,1,1.7,2.8,1.7,3.5c0,2.3-2.1,2.4-2.3,2.4c-0.2,0-1,0-1.5-0.3c-0.4-0.2-0.4-0.3-0.5-1.2v-0.1
			c0-0.3,0-2.5,0-3.9V16.3z"/>
		<path class="st12" d="M73,22.8c-0.1,0-0.4,0-0.7,0c-0.5-0.1-1.2-0.3-2.1-1.2c-0.9-1-2-2.4-3.2-3.9l-0.4-0.5
			c1.4-1.4,2.1-2.7,2.1-4.2c0-1.3-0.8-2.3-1.3-2.6c-1-0.7-2.3-0.8-3.4-0.8c-0.4,0-1,0-1.5,0c-0.3,0-0.5,0-0.6,0c0,0-0.1,0-0.2,0
			c-0.4,0-0.9,0-1.5,0c-0.4,0-0.5,0.2-0.5,0.4c0,0.2,0.2,0.3,0.4,0.3c0.2,0,0.2,0,0.3,0c0.5,0.1,0.6,0.3,0.6,0.8c0,0.6,0,1.1,0,3.9
			V18c0,1.7,0,3.2-0.1,3.9c-0.1,0.6-0.2,0.8-0.4,0.8c-0.2,0-0.4,0.1-0.5,0.1c-0.2,0-0.3,0.2-0.3,0.3c0,0.2,0.1,0.4,0.5,0.4
			c0.5,0,1.3,0,1.6,0l0.1,0c0,0,0.1,0,0.2,0c0.4,0,1.3,0,2,0c0.5,0,0.5-0.3,0.5-0.4c0-0.2-0.1-0.3-0.4-0.3c-0.2,0-0.5,0-0.8-0.1
			c-0.4,0-0.5-0.2-0.5-0.8c-0.1-0.7-0.1-2.2-0.1-3.9v-0.4l2.1,0c0,0,0,0,0.1,0c0.2,0.2,0.4,0.5,0.7,0.9c0.4,0.5,0.9,1.2,1.3,1.8
			l0.2,0.3c0.9,1.2,1.5,2,2.3,2.4c0.5,0.3,1,0.4,2,0.4h1.3C73.5,23.5,73.3,22.8,73,22.8 M63.8,10.4c1.8,0,2.9,1.3,2.9,3.4
			c0,1.2-0.4,2.2-1,2.6c-0.4,0.3-0.9,0.3-1.2,0.3c-0.8,0-1.6-0.1-1.8-0.3c0,0,0,0,0,0l0-5.9C62.8,10.4,63.3,10.4,63.8,10.4"/>
		<path class="st12" d="M79.9,20.6c-0.3,0-0.3,0.3-0.4,0.4c-0.1,0.7-0.3,1-0.7,1.1c-0.4,0.2-1.2,0.2-1.7,0.2c-1.7,0-1.8-0.2-1.9-1.3
			c0-0.3,0-1.4,0-2.3l0-2.3c0.5,0,2,0,2.5,0.1c0.6,0.1,0.7,0.3,0.8,0.5c0.1,0.2,0.1,0.4,0.1,0.5c0,0.2,0.1,0.4,0.3,0.4
			c0.3,0,0.3-0.4,0.3-0.5c0-0.1,0-0.8,0.1-1.1c0-0.4,0.1-0.6,0.1-0.8c0-0.1,0-0.2,0-0.2c0-0.3-0.2-0.3-0.3-0.3
			c-0.2,0-0.3,0.1-0.4,0.3l0,0c-0.1,0.1-0.3,0.2-0.7,0.2c-0.3,0-1.6,0-2.8,0v-5c0.5,0,2.1,0,2.4,0.1c1,0.1,1,0.3,1.1,0.5
			c0.1,0.2,0.1,0.4,0.1,0.6c0,0.4,0.3,0.4,0.4,0.4c0.1,0,0.3,0,0.3-0.4c0-0.1,0-0.5,0.1-0.9c0-0.2,0-0.3,0-0.4
			c0-0.3,0.1-0.5,0.1-0.6c0-0.1,0-0.2,0-0.3c0-0.4-0.2-0.4-0.3-0.4c-0.1,0-0.2,0-0.2,0.1c0,0,0,0-0.1,0c-0.1,0-0.4,0.1-0.7,0.1
			c-0.4,0-4,0-4.1,0l-0.7,0c-0.4,0-0.6,0-1.1,0c-0.4,0-0.5,0.2-0.5,0.4c0,0.2,0.2,0.3,0.4,0.3c0.2,0,0.2,0,0.3,0
			c0.5,0.1,0.6,0.3,0.6,0.8c0,0.6,0,1.1,0,3.9V18c0,1.7,0,3.2-0.1,3.9c-0.1,0.6-0.2,0.8-0.4,0.8c-0.2,0-0.4,0.1-0.5,0.1
			c-0.2,0-0.4,0.2-0.4,0.3c0,0.2,0.1,0.4,0.5,0.4c0.1,0,0.3,0,0.5,0c0.2,0,0.4,0,0.6,0c0.4,0,0.7,0,0.7,0c0.3,0,0.6,0,1.4,0.1l0.4,0
			c0.6,0,1.5,0,2.6,0c0.7,0,1,0,1.2-0.6c0.1-0.4,0.2-1.6,0.2-1.8C80.2,21,80.2,20.6,79.9,20.6"/>
		<path class="st12" d="M96.4,19.9c-0.3,0-0.3,0.3-0.4,0.4c-0.1,0.3-0.3,1.1-0.6,1.4c-0.7,0.8-1.9,0.9-3.1,0.9c-4,0-6.4-3.3-6.4-6.5
			c0-1.5,0.2-3.3,1.6-4.6c0.9-0.9,2.2-1.3,4.1-1.3c1.6,0,3,0.5,3.5,1c0.4,0.4,0.7,1.1,0.7,1.7c0,0.2,0,0.6,0.3,0.6
			c0.3,0,0.3-0.3,0.3-0.5c0-0.1,0-0.4,0-0.7c0-0.4,0-0.9,0-1.2c0-0.4,0.1-0.6,0.1-0.8c0-0.1,0-0.2,0-0.2c0-0.2-0.1-0.4-0.4-0.4
			c-0.6,0-1.1-0.1-1.8-0.3l-0.1,0c-1.1-0.2-2.2-0.2-2.7-0.2c-2.5,0-4.4,0.7-5.7,2c-1.5,1.5-2.1,3.7-2.1,5.1c0,2.3,0.8,4.2,2.3,5.5
			c1.5,1.4,3.5,2,6.2,2c1.1,0,2.6-0.1,3.4-0.4c0.4-0.2,0.4-0.2,0.6-0.6c0.2-0.6,0.4-2.2,0.4-2.4C96.7,20,96.5,19.9,96.4,19.9"/>
		<path class="st12" d="M106.1,9.2c-5.4,0-7.4,4.5-7.4,7.3c0,3.5,2.3,7.4,7.3,7.4c4.3,0,7.5-3.2,7.5-7.7
			C113.5,12,110.5,9.2,106.1,9.2 M106,10.1c2.6,0,5.4,2.1,5.4,6.6c0,5.8-4.1,6.1-4.9,6.1c-3.3,0-5.7-2.8-5.7-6.8
			C100.8,12.3,102.7,10.1,106,10.1"/>
		<path class="st12" d="M119.8,23c-0.2,0-0.5,0-0.8-0.1c-0.4-0.1-0.5-0.3-0.6-0.9c-0.1-0.8-0.1-2.2-0.1-3.9v-3.2c0-2.8,0-3.4,0-3.9
			c0-0.7,0.2-0.8,0.5-0.9c0.2,0,0.3-0.1,0.4-0.1c0.2,0,0.3-0.1,0.3-0.3c0-0.2-0.2-0.3-0.5-0.3c-0.4,0-1.1,0-1.5,0
			c-0.2,0-0.3,0-0.3,0c0,0-0.1,0-0.3,0c-0.4,0-1.1,0-1.6,0c-0.3,0-0.5,0.1-0.5,0.3c0,0.2,0.1,0.3,0.3,0.3c0.1,0,0.4,0,0.5,0.1
			c0.3,0.1,0.4,0.2,0.5,0.9c0,0.6,0,1.1,0,3.9v3.2c0,1.7,0,3.2-0.1,3.9c-0.1,0.5-0.2,0.8-0.4,0.9c-0.2,0-0.4,0.1-0.5,0.1
			c-0.2,0-0.3,0.1-0.3,0.3c0,0.2,0.2,0.3,0.5,0.3c0.4,0,1.1,0,1.5,0c0.2,0,0.3,0,0.3,0c0,0,0.1,0,0.2,0c0.4,0,1.3,0,2,0
			c0.4,0,0.5-0.2,0.5-0.3C120.1,23.1,120,23,119.8,23"/>
		<path class="st12" d="M136.6,9.4c-0.5,0-0.9,0-1.2,0c-0.1,0-0.3,0-0.3,0c-0.1,0-0.2,0-0.4,0c-0.4,0-1,0-1.5,0
			c-0.2,0-0.5,0-0.5,0.3c0,0.2,0.1,0.3,0.3,0.3c0.1,0,0.5,0,0.9,0.1c0.4,0.1,0.6,0.3,0.6,1.6l0.2,8.8c-0.3-0.3-0.8-0.8-1.3-1.4
			c-0.8-0.9-1.8-2-2.8-3c-2.8-3-5.5-6-5.8-6.3c0,0-0.1-0.1-0.2-0.2c-0.3-0.3-0.4-0.5-0.6-0.5c-0.4,0-0.4,0.4-0.4,1.1l0,10.5
			c0,1.6-0.1,2.1-0.4,2.2c-0.2,0.1-0.5,0.1-0.7,0.1c-0.2,0-0.3,0.1-0.3,0.3c0,0.3,0.3,0.3,0.5,0.3c0.6,0,1.1,0,1.5,0
			c0.1,0,0.3,0,0.3,0c0,0,0.1,0,0.3,0c0.3,0,0.9,0,1.7,0c0.1,0,0.5,0,0.5-0.3c0-0.1-0.1-0.3-0.3-0.3c0,0-0.5,0-0.9-0.1
			c-0.4-0.1-0.6-0.4-0.6-2l-0.2-8.3c0.8,0.9,2.6,2.9,4.5,4.9c2,2.1,4.6,4.8,4.8,5c1.1,1.1,1.2,1.2,1.5,1.2c0.3,0,0.3-0.3,0.3-1.5
			l0-10.7c0-1.1,0.1-1.4,0.5-1.5c0.2,0,0.3,0,0.4,0c0.3,0,0.4-0.2,0.4-0.3C137.1,9.4,136.7,9.4,136.6,9.4"/>
		<path class="st12" d="M143.7,15.4l-0.5-0.4c-1.7-1.3-2.2-2-2.2-2.9c0-1.2,0.8-1.9,2.1-1.9c1.5,0,2,0.6,2.1,0.9
			c0.1,0.2,0.2,0.6,0.2,0.9c0,0.1,0.1,0.4,0.3,0.4c0.3,0,0.3-0.4,0.3-0.6c0-1,0-1.5,0.1-1.8c0-0.1,0-0.1,0-0.1
			c0-0.1-0.1-0.3-0.4-0.3c-0.1,0-0.3,0-0.6-0.1c-0.5-0.1-1.1-0.2-1.7-0.2c-2.4,0-4,1.4-4,3.5c0,1.3,0.4,2.4,2.4,4.1l0.8,0.7
			c1.6,1.3,2,2,2,3.2c0,1.1-0.8,2.3-2.4,2.3c-0.7,0-2.2-0.2-2.5-1.7c-0.1-0.2-0.1-0.5-0.1-0.6c0-0.1,0-0.4-0.3-0.4
			c-0.3,0-0.3,0.3-0.3,0.5c0,0.1,0,0.1,0,0.2c0,0.4-0.1,1-0.1,1.7c0,0.5,0,0.7,0.4,0.9c0.7,0.3,1.5,0.5,2.5,0.5
			c1.1,0,2.1-0.3,2.9-0.8c1.2-0.9,1.6-2.2,1.6-3.2C146.5,18.4,146,17.2,143.7,15.4"/>
	</g>
</g>
</svg>
