<?xml version="1.0" encoding="utf-8"?>
<!-- Generator: Adobe Illustrator 22.0.1, SVG Export Plug-In . SVG Version: 6.00 Build 0)  -->
<svg version="1.1" id="Camada_1" xmlns="http://www.w3.org/2000/svg" xmlns:xlink="http://www.w3.org/1999/xlink" x="0px" y="0px"
	 viewBox="0 0 20 19" style="enable-background:new 0 0 20 19;" xml:space="preserve">
<style type="text/css">
	.st0{fill:#ECEFF0;}
	.st1{fill:#D9DBDD;}
	.st2{fill:#F4F6F7;}
	.st3{fill:#FFFFFF;stroke:#D9DBDD;stroke-miterlimit:10;}
	.st4{fill:#5DA38A;}
	.st5{fill:#AD0035;}
	.st6{fill:#B5BDC9;}
	.st7{display:none;fill:#ECEFF0;}
	.st8{fill:none;stroke:#D9DBDD;stroke-miterlimit:10;}
	.st9{fill:none;stroke:#D9DBDD;stroke-miterlimit:10;stroke-dasharray:1,1;}
	.st10{fill:#252A2F;}
	.st11{fill:#2C333A;}
	.st12{fill:#FFFFFF;}
	.st13{fill:#BFC7D3;}
	.st14{fill:#E7EAEB;}
	.st15{fill:#F4F6F7;stroke:#D9DBDD;stroke-miterlimit:10;}
	.st16{fill:#B2B7BC;}
	.st17{fill:#DFE1E4;}
	.st18{fill-rule:evenodd;clip-rule:evenodd;fill:none;stroke:#B5BDC9;stroke-miterlimit:10;}
	.st19{fill:none;stroke:#ECEFF0;stroke-miterlimit:10;}
	.st20{fill:#FFFFFF;stroke:#ECEFF0;stroke-miterlimit:10;}
	.st21{fill:none;stroke:#B5BDC9;stroke-miterlimit:10;}
	.st22{fill:none;stroke:#9C9C9C;stroke-miterlimit:10;}
	.st23{fill:#D7E4FD;}
	.st24{fill:#F5DEE6;}
	.st25{fill:none;stroke:#D6D6D6;stroke-miterlimit:10;}
	.st26{opacity:0.5;fill:#D7E4FD;}
	.st27{opacity:0.5;fill:#F5DEE6;}
	.st28{fill:#FFFFFF;stroke:#7A7F86;stroke-miterlimit:10;}
	.st29{fill:none;stroke:#5DA38A;stroke-miterlimit:10;}
	.st30{fill:none;stroke:#AD0035;stroke-miterlimit:10;}
	.st31{fill:none;stroke:#E0C758;stroke-miterlimit:10;}
	.st32{fill:none;stroke:#5DA38A;stroke-miterlimit:10;stroke-dasharray:2,2;}
	.st33{fill:#404A54;}
	.st34{fill:#282D33;}
	.st35{fill:none;stroke:#B5BDC9;stroke-linecap:round;stroke-linejoin:round;stroke-miterlimit:10;}
	.st36{fill:none;stroke:#5DA38A;stroke-linecap:round;stroke-linejoin:round;stroke-miterlimit:10;}
	.st37{fill:none;stroke:#AD0035;stroke-linecap:round;stroke-linejoin:round;stroke-miterlimit:10;}
	
		.st38{fill-rule:evenodd;clip-rule:evenodd;fill:none;stroke:#B5BDC9;stroke-linecap:round;stroke-linejoin:round;stroke-miterlimit:10;}
	.st39{fill:#E8ECED;}
	.st40{fill:none;stroke:#D9DDDF;stroke-miterlimit:10;}
	.st41{fill:#2B3441;stroke:#2B3441;stroke-miterlimit:10;}
	.st42{fill:#D8DDDF;}
	.st43{fill:none;stroke:#2B3441;stroke-miterlimit:10;}
	.st44{fill:none;stroke:#7A7F86;stroke-linecap:round;stroke-linejoin:round;stroke-miterlimit:10;}
	.st45{fill:none;stroke:#5DA38A;stroke-miterlimit:10;stroke-dasharray:1.9972,1.9972;}
	.st46{fill:#DFE1E4;stroke:#D9DBDD;stroke-miterlimit:10;}
	.st47{fill:none;stroke:#7A7F86;stroke-miterlimit:10;}
	.st48{fill:none;stroke:#FFFFFF;stroke-miterlimit:10;}
	.st49{fill:#606060;}
	.st50{fill:none;stroke:#BD0033;stroke-linecap:round;stroke-linejoin:round;stroke-miterlimit:10;}
	.st51{fill:none;stroke:#9C9C9C;stroke-linecap:round;stroke-linejoin:round;stroke-miterlimit:10;}
</style>
<path class="st38" d="M18.4,8.6c0-0.2-0.3-0.4-0.5-0.4c-0.8,0-1.5-0.5-1.8-1.2c-0.3-0.7-0.1-1.6,0.5-2.1c0.2-0.2,0.2-0.4,0.1-0.6
	c-0.4-0.5-0.9-1-1.3-1.4c-0.2-0.2-0.5-0.1-0.6,0.1c-0.5,0.6-1.4,0.8-2.1,0.5c-0.7-0.3-1.2-1-1.1-1.8c0-0.3-0.2-0.5-0.4-0.5
	C10.4,1,9.7,1,9.1,1.1c-0.2,0-0.4,0.2-0.4,0.5c0,0.8-0.4,1.5-1.2,1.8C6.8,3.6,5.9,3.4,5.4,2.9C5.2,2.7,4.9,2.7,4.7,2.8
	c-0.5,0.4-1,0.9-1.4,1.4C3.2,4.4,3.2,4.7,3.4,4.8C4,5.4,4.2,6.2,3.9,6.9c-0.3,0.7-1,1.1-1.8,1.1c-0.3,0-0.5,0.2-0.5,0.4
	c-0.1,0.6-0.1,1.3,0,1.9c0,0.2,0.3,0.4,0.6,0.4c0.7,0,1.5,0.4,1.7,1.2c0.3,0.7,0.1,1.6-0.5,2.1c-0.2,0.2-0.2,0.4-0.1,0.6
	c0.4,0.5,0.8,1,1.3,1.4c0.2,0.2,0.5,0.1,0.6-0.1c0.5-0.6,1.4-0.8,2.1-0.5c0.7,0.3,1.2,1,1.1,1.8c0,0.3,0.2,0.5,0.4,0.5
	c0.3,0,0.7,0.1,1,0.1c0.3,0,0.6,0,0.9-0.1c0.2,0,0.4-0.2,0.4-0.5c0-0.8,0.4-1.5,1.2-1.8c0.7-0.3,1.6-0.1,2.1,0.5
	c0.2,0.2,0.4,0.2,0.6,0.1c0.5-0.4,1-0.9,1.4-1.4c0.2-0.2,0.1-0.5-0.1-0.6c-0.6-0.5-0.8-1.4-0.5-2.1c0.3-0.7,1-1.2,1.7-1.2l0.1,0
	c0.2,0,0.5-0.2,0.5-0.4C18.5,9.9,18.5,9.2,18.4,8.6L18.4,8.6z M10,12.4c-1.6,0-2.8-1.3-2.8-2.8C7.2,8,8.5,6.7,10,6.7
	c1.6,0,2.8,1.3,2.8,2.8C12.8,11.1,11.6,12.4,10,12.4L10,12.4z M10,12.4"/>
</svg>
