<?xml version="1.0" encoding="utf-8"?>
<!-- Generator: Adobe Illustrator 22.0.1, SVG Export Plug-In . SVG Version: 6.00 Build 0)  -->
<svg version="1.1" id="Camada_1" xmlns="http://www.w3.org/2000/svg" xmlns:xlink="http://www.w3.org/1999/xlink" x="0px" y="0px"
	 viewBox="0 0 20 19" style="enable-background:new 0 0 20 19;" xml:space="preserve">
<style type="text/css">
	.st0{fill:#ECEFF0;}
	.st1{fill:#D9DBDD;}
	.st2{fill:#F4F6F7;}
	.st3{fill:#FFFFFF;stroke:#D9DBDD;stroke-miterlimit:10;}
	.st4{fill:#5DA38A;}
	.st5{fill:#AD0035;}
	.st6{fill:#B5BDC9;}
	.st7{display:none;fill:#ECEFF0;}
	.st8{fill:none;stroke:#D9DBDD;stroke-miterlimit:10;}
	.st9{fill:none;stroke:#D9DBDD;stroke-miterlimit:10;stroke-dasharray:1,1;}
	.st10{fill:#252A2F;}
	.st11{fill:#2C333A;}
	.st12{fill:#FFFFFF;}
	.st13{fill:#BFC7D3;}
	.st14{fill:#E7EAEB;}
	.st15{fill:#F4F6F7;stroke:#D9DBDD;stroke-miterlimit:10;}
	.st16{fill:#B2B7BC;}
	.st17{fill:#DFE1E4;}
	.st18{fill-rule:evenodd;clip-rule:evenodd;fill:none;stroke:#B5BDC9;stroke-miterlimit:10;}
	.st19{fill:none;stroke:#ECEFF0;stroke-miterlimit:10;}
	.st20{fill:#FFFFFF;stroke:#ECEFF0;stroke-miterlimit:10;}
	.st21{fill:none;stroke:#B5BDC9;stroke-miterlimit:10;}
	.st22{fill:none;stroke:#9C9C9C;stroke-miterlimit:10;}
	.st23{fill:#D7E4FD;}
	.st24{fill:#F5DEE6;}
	.st25{fill:none;stroke:#D6D6D6;stroke-miterlimit:10;}
	.st26{opacity:0.5;fill:#D7E4FD;}
	.st27{opacity:0.5;fill:#F5DEE6;}
	.st28{fill:#FFFFFF;stroke:#7A7F86;stroke-miterlimit:10;}
	.st29{fill:none;stroke:#5DA38A;stroke-miterlimit:10;}
	.st30{fill:none;stroke:#AD0035;stroke-miterlimit:10;}
	.st31{fill:none;stroke:#E0C758;stroke-miterlimit:10;}
	.st32{fill:none;stroke:#5DA38A;stroke-miterlimit:10;stroke-dasharray:2,2;}
	.st33{fill:#404A54;}
	.st34{fill:#282D33;}
	.st35{fill:none;stroke:#B5BDC9;stroke-linecap:round;stroke-linejoin:round;stroke-miterlimit:10;}
	.st36{fill:none;stroke:#5DA38A;stroke-linecap:round;stroke-linejoin:round;stroke-miterlimit:10;}
	.st37{fill:none;stroke:#AD0035;stroke-linecap:round;stroke-linejoin:round;stroke-miterlimit:10;}
	
		.st38{fill-rule:evenodd;clip-rule:evenodd;fill:none;stroke:#B5BDC9;stroke-linecap:round;stroke-linejoin:round;stroke-miterlimit:10;}
	.st39{fill:#E8ECED;}
	.st40{fill:none;stroke:#D9DDDF;stroke-miterlimit:10;}
	.st41{fill:#2B3441;stroke:#2B3441;stroke-miterlimit:10;}
	.st42{fill:#D8DDDF;}
	.st43{fill:none;stroke:#2B3441;stroke-miterlimit:10;}
	.st44{fill:none;stroke:#7A7F86;stroke-linecap:round;stroke-linejoin:round;stroke-miterlimit:10;}
	.st45{fill:none;stroke:#5DA38A;stroke-miterlimit:10;stroke-dasharray:1.9972,1.9972;}
	.st46{fill:#DFE1E4;stroke:#D9DBDD;stroke-miterlimit:10;}
	.st47{fill:none;stroke:#7A7F86;stroke-miterlimit:10;}
	.st48{fill:none;stroke:#FFFFFF;stroke-miterlimit:10;}
	.st49{fill:#606060;}
	.st50{fill:none;stroke:#BD0033;stroke-linecap:round;stroke-linejoin:round;stroke-miterlimit:10;}
	.st51{fill:#9C9C9C;}
	.st52{fill:none;stroke:#9C9C9C;stroke-linecap:round;stroke-linejoin:round;stroke-miterlimit:10;}
	.st53{fill:none;stroke:#B5BDC9;stroke-linecap:round;stroke-miterlimit:10;}
</style>
<g>
	<path class="st53" d="M5.1,5.1c0-0.7-0.6-1.3-1.3-1.3S2.5,4.3,2.5,5.1"/>
	<path class="st53" d="M5.1,7.5c0-0.7-0.6-1.3-1.3-1.3S2.5,6.8,2.5,7.5"/>
	<path class="st53" d="M5.1,10c0-0.7-0.6-1.3-1.3-1.3S2.5,9.2,2.5,10"/>
	<path class="st53" d="M5.1,12.4c0-0.7-0.6-1.3-1.3-1.3s-1.3,0.6-1.3,1.3"/>
	<path class="st53" d="M3.8,16.2c-0.7,0-1.3-0.6-1.3-1.3c0-0.7,0.6-1.3,1.3-1.3s1.3,0.6,1.3,1.3"/>
	<path class="st53" d="M3.8,15.2v2.4h12c1,0,1.8-0.8,1.8-1.8V3.1c0-1-0.8-1.8-1.8-1.8h-12v2.4"/>
	<line class="st53" x1="14" y1="17.6" x2="14" y2="1.4"/>
	<line class="st53" x1="15.5" y1="17.6" x2="15.5" y2="1.4"/>
</g>
</svg>
