<svg xmlns="http://www.w3.org/2000/svg" viewBox="0 0 42.4795 34.81224"><defs><style>.cls-1{fill:#231f20;}.cls-2{fill:#1e262b;}</style></defs><title>Ativo 32</title><g id="Camada_2" data-name="Camada 2"><g id="Camada_1-2" data-name="Camada 1"><path class="cls-1" d="M33.82909,13.90165c-.74906-.61116-3.38847,0-3.38847,0a8.75961,8.75961,0,0,1,3.58225,1.85456s.55623-1.2435-.19378-1.85456"/><path class="cls-2" d="M41.76819,16.00505c-.36106-.38419-4.13659-4.11628-7.61613-5.60966-2.33271-.99778-2.71143-5.24172-9.94235-7.51345C20.94577,1.85535,15.20371,2.25243,15.06106,0c-1.0697,1.25673-.55856,3.50474,2.31783,3.76694-1.31877-.06157-7.02322-.03183-10.65795,4.78354C4.53971,11.44175,3.07457,13.629.42729,13.629a9.01724,9.01724,0,0,0-.388,2.10943,8.805,8.805,0,0,0,5.63892-3.904c2.34758-3.86813,6.37033-5.82724,11.96139-5.82724H17.64l.01535.778H17.64c-5.29644,0-9.09474,1.83342-11.289,5.449A9.58637,9.58637,0,0,1,.003,16.56487c-.0093.48407.00279.99.03624,1.5123a8.806,8.806,0,0,0,5.63892-3.9038C8.02577,10.3071,12.0476,8.34545,17.63958,8.34545l.0158.77846h-.0158c-5.296,0-9.09429,1.83363-11.28853,5.45A9.55135,9.55135,0,0,1,.10432,18.88061q.07251.72282.19145,1.47083a8.71143,8.71143,0,0,0,5.38242-3.84013c2.34758-3.86627,6.37033-5.827,11.96139-5.827H17.64l.01535.77787H17.64c-5.29644,0-9.09474,1.83386-11.289,5.45061A9.45468,9.45468,0,0,1,.43564,21.1399c.08643.47153.19.9476.30622,1.42367a8.58985,8.58985,0,0,0,4.93633-3.71293c2.34758-3.86756,6.37033-5.82829,11.96139-5.82829H17.64l.01535.777H17.64c-5.29644,0-9.09474,1.83548-11.289,5.45152A9.352,9.352,0,0,1,.93936,23.33878c.1236.45409.2579.90763.40241,1.35489a8.40071,8.40071,0,0,0,4.33642-3.50626c2.34758-3.8657,6.37033-5.82619,11.96139-5.82619H17.64l.01535.78066H17.64c-5.29644,0-9.09474,1.83108-11.289,5.44956A9.18173,9.18173,0,0,1,1.59782,25.4526q.22722.64387.48188,1.267a8.23456,8.23456,0,0,0,3.59849-3.19133c2.34758-3.86684,6.37033-5.828,11.96139-5.828H17.64l.01535.77961H17.64c-5.29644,0-9.09474,1.83467-11.289,5.4499a9.03112,9.03112,0,0,1-3.954,3.52612c.1761.387.362.766.55111,1.13361a8.08045,8.08045,0,0,0,2.73-2.72316c2.34758-3.866,6.37033-5.8278,11.96139-5.8278H17.64l.01535.77915H17.64c-5.29644,0-9.09474,1.83294-11.289,5.45107a8.92885,8.92885,0,0,1-3.01813,3.02183c.19008.32875.38338.64452.58878.94934a8.04031,8.04031,0,0,0,1.75649-2.034C8.02577,24.339,12.04852,22.38,17.63958,22.38H17.64l.01535.7773H17.64c-5.29644,0-9.09474,1.83258-11.289,5.45037a8.86294,8.86294,0,0,1-1.97027,2.28065c.17985.24025.36666.4677.55623.68542a7.92378,7.92378,0,0,0,.74118-1.02916c2.34758-3.86663,6.37033-5.82747,11.96139-5.82747H17.64l.01535.78068H17.64c-5.29644,0-9.09474,1.83084-11.289,5.4478a9.09032,9.09032,0,0,1-.8699,1.2012c.138.13442.27789.26047.42195.38093,2.37405-3.631,6.3206-5.47082,11.73648-5.47082l.0158.77973h-.0158c-5.15567,0-8.88752,1.74129-11.105,5.16752a5.98313,5.98313,0,0,0,.559.33258c2.41822-2.6179,5.95212-3.94272,10.546-3.94272H17.64l.01535.77975H17.64c-4.2286,0-7.49858,1.17332-9.763,3.48406a4.15127,4.15127,0,0,0,1.23372.19122c4.12128-3.03216,12.967-3.71862,19.26014.96318-2.20863-4.37546-2.625-7.7473-.54274-8.93874,3.08781-1.76382,6.39355,1.83608,5.32385,4.15506,0,0,8.32573-.80052,5.421-6.81014,0,0,1.53485-.40311,2.13057-2.90566a3.02392,3.02392,0,0,0,1.77508-2.77253,1.93264,1.93264,0,0,0-.7105-1.53518m-1.4196,2.93259c-1.48931,0-2.388-1.68029-2.388-1.68029s-.6236.1408-.19145,1.07551c.42937.932,1.74255,1.14381,1.80667,2.07863a2.81233,2.81233,0,0,1-1.29227,2.27045c-.45354.13337-3.10037.66973-3.48744,1.40437v.66717s3.2658-1.0274,3.4563-.60141a2.69859,2.69859,0,0,1,0,2.33875c-.54926.73222-2.421,2.86941-4.48743.46642-2.066-2.40344-2.83736-3.32026-5.35826-2.93747a2.3679,2.3679,0,0,0,0-2.87314s-.58318,2.83769-2.96977,2.83769c-1.86337,0-3.30063-1.70306-1.61106-4.03936a9.88541,9.88541,0,0,0,2.2816-5.87625,3.89881,3.89881,0,0,1-2.01532-3.13939c-.4043-2.39963-5.00557-1.402-2.6538,2.77217a3.73681,3.73681,0,0,1-.82529-3.8062c.9698-2.43459,5.519-1.60107,5.85826,2.83885a4.37691,4.37691,0,0,0-.64545-3.87405,3.90544,3.90544,0,0,1,3.41914.67425,9.27714,9.27714,0,0,0,4.19838,1.79031c.98514.26394,3.90938,1.03379,7.88289,5.22616a1.201,1.201,0,0,1,.37638.70654,1.34549,1.34549,0,0,1-1.35408,1.68029"/></g></g></svg>