<?xml version="1.0" encoding="utf-8"?>
<!-- Generator: Adobe Illustrator 22.0.1, SVG Export Plug-In . SVG Version: 6.00 Build 0)  -->
<svg version="1.1" id="Camada_1" xmlns="http://www.w3.org/2000/svg" xmlns:xlink="http://www.w3.org/1999/xlink" x="0px" y="0px"
	 viewBox="0 0 110 70" style="enable-background:new 0 0 110 70;" xml:space="preserve">
<style type="text/css">
	.st0{fill:#ECEFF0;}
	.st1{fill:#D9DBDD;}
	.st2{fill:#F4F6F7;}
	.st3{fill:#FFFFFF;stroke:#D9DBDD;stroke-miterlimit:10;}
	.st4{fill:#5DA38A;}
	.st5{fill:#AD0035;}
	.st6{fill:#B5BDC9;}
	.st7{display:none;fill:#ECEFF0;}
	.st8{fill:none;stroke:#D9DBDD;stroke-miterlimit:10;}
	.st9{fill:none;stroke:#D9DBDD;stroke-miterlimit:10;stroke-dasharray:1,1;}
	.st10{fill:#252A2F;}
	.st11{fill:#2C333A;}
	.st12{fill:#FFFFFF;}
	.st13{fill:#BFC7D3;}
	.st14{fill:#E7EAEB;}
	.st15{fill:#F4F6F7;stroke:#D9DBDD;stroke-miterlimit:10;}
	.st16{fill:#B2B7BC;}
	.st17{fill:#DFE1E4;}
	.st18{fill-rule:evenodd;clip-rule:evenodd;fill:none;stroke:#B5BDC9;stroke-miterlimit:10;}
	.st19{fill:none;stroke:#ECEFF0;stroke-miterlimit:10;}
	.st20{fill:#FFFFFF;stroke:#ECEFF0;stroke-miterlimit:10;}
	.st21{fill:none;stroke:#B5BDC9;stroke-miterlimit:10;}
	.st22{fill:none;stroke:#9C9C9C;stroke-miterlimit:10;}
	.st23{fill:#D7E4FD;}
	.st24{fill:#F5DEE6;}
	.st25{fill:none;stroke:#D6D6D6;stroke-miterlimit:10;}
	.st26{opacity:0.5;fill:#D7E4FD;}
	.st27{opacity:0.5;fill:#F5DEE6;}
	.st28{fill:#FFFFFF;stroke:#7A7F86;stroke-miterlimit:10;}
	.st29{fill:none;stroke:#5DA38A;stroke-miterlimit:10;}
	.st30{fill:none;stroke:#AD0035;stroke-miterlimit:10;}
	.st31{fill:none;stroke:#E0C758;stroke-miterlimit:10;}
	.st32{fill:none;stroke:#5DA38A;stroke-miterlimit:10;stroke-dasharray:2,2;}
	.st33{fill:#404A54;}
	.st34{fill:#282D33;}
	.st35{fill:none;stroke:#B5BDC9;stroke-linecap:round;stroke-linejoin:round;stroke-miterlimit:10;}
	.st36{fill:none;stroke:#5DA38A;stroke-linecap:round;stroke-linejoin:round;stroke-miterlimit:10;}
	.st37{fill:none;stroke:#AD0035;stroke-linecap:round;stroke-linejoin:round;stroke-miterlimit:10;}
	
		.st38{fill-rule:evenodd;clip-rule:evenodd;fill:none;stroke:#B5BDC9;stroke-linecap:round;stroke-linejoin:round;stroke-miterlimit:10;}
	.st39{fill:#E8ECED;}
	.st40{fill:none;stroke:#D9DDDF;stroke-miterlimit:10;}
	.st41{fill:none;stroke:#000000;stroke-linecap:round;stroke-linejoin:round;stroke-miterlimit:10;}
	.st42{fill:#2B3441;stroke:#2B3441;stroke-miterlimit:10;}
	.st43{fill:#D8DDDF;}
	.st44{fill:none;stroke:#2B3441;stroke-miterlimit:10;}
	.st45{fill:none;stroke:#7A7F86;stroke-linecap:round;stroke-linejoin:round;stroke-miterlimit:10;}
	.st46{fill:none;stroke:#5DA38A;stroke-miterlimit:10;stroke-dasharray:1.9972,1.9972;}
	.st47{fill:#DFE1E4;stroke:#D9DBDD;stroke-miterlimit:10;}
	.st48{fill:none;stroke:#7A7F86;stroke-miterlimit:10;}
	.st49{fill:none;stroke:#FFFFFF;stroke-miterlimit:10;}
	.st50{fill:#606060;}
	.st51{fill:none;stroke:#BD0033;stroke-linecap:round;stroke-linejoin:round;stroke-miterlimit:10;}
	.st52{fill:#9C9C9C;}
	.st53{fill:none;stroke:#9C9C9C;stroke-linecap:round;stroke-linejoin:round;stroke-miterlimit:10;}
</style>
<g>
	<g>
		<polyline class="st48" points="57.5,11 39.9,11 26.9,24 19.5,24 		"/>
		<line class="st48" x1="39.5" y1="59" x2="57.5" y2="59"/>
		<polyline class="st48" points="95.5,46 88.3,46 75.3,59 57.5,59 		"/>
		<line class="st48" x1="75.5" y1="11" x2="57.5" y2="11"/>
		<line class="st48" x1="91.5" y1="24" x2="107.5" y2="24"/>
		<line class="st48" x1="65.5" y1="4" x2="87.5" y2="4"/>
		<path class="st48" d="M45,49.3c3.4,2.9,7.8,4.7,12.6,4.7c10.6,0,19.2-8.6,19.2-19.2s-8.6-19.2-19.2-19.2s-19.2,8.6-19.2,19.2
			c0,1,0.1,1.9,0.2,2.8"/>
		<path class="st48" d="M40,42.5c0.5,1.2,1.2,2.3,1.9,3.4"/>
		<line class="st48" x1="83.5" y1="34" x2="99.5" y2="34"/>
		<line class="st48" x1="65.5" y1="66" x2="85.5" y2="66"/>
		<line class="st48" x1="2.5" y1="43" x2="23.5" y2="43"/>
		<line class="st48" x1="28.5" y1="43" x2="32.5" y2="43"/>
		<line class="st48" x1="17.5" y1="54" x2="33.5" y2="54"/>
		<path class="st48" d="M51.5,26h7.8c2.4,0,4.4,2,4.4,4.4v0.3c0,2.4-2,4.4-4.4,4.4h-5.8"/>
		<path class="st48" d="M51.5,44H60c2.4,0,4.4-2,4.4-4.4v-0.2c0-2.5-2-4.6-4.6-4.4H54v-9.5"/>
		<line class="st48" x1="54" y1="34.5" x2="54" y2="43.5"/>
		<line class="st48" x1="57" y1="22.5" x2="57" y2="26.5"/>
		<line class="st48" x1="57" y1="43.5" x2="57" y2="46.5"/>
		<g>
			<path class="st48" d="M16.9,19.6l-5.5,3.6c-0.8,0.5-0.8,1.7,0,2.3l5.5,3.6c0.9,0.6,2.1-0.1,2.1-1.1v-7.1
				C19,19.6,17.8,19,16.9,19.6z"/>
		</g>
		<g>
			<path class="st48" d="M98.1,50.2l5.5-3.6c0.8-0.5,0.8-1.7,0-2.3l-5.5-3.6c-0.9-0.6-2.1,0.1-2.1,1.1V49
				C96,50.1,97.2,50.7,98.1,50.2z"/>
		</g>
	</g>
</g>
</svg>
